<svg width="960" height="360" viewBox="0 0 960 360" fill="none" xmlns="http://www.w3.org/2000/svg">
  <rect width="960" height="360" fill="#111315"/>
  <rect x="40" y="44" width="880" height="272" rx="8" fill="#1d2322" stroke="#3b4742" stroke-width="3"/>
  <rect x="76" y="82" width="232" height="188" rx="6" fill="#242b29" stroke="#53615b" stroke-width="2"/>
  <rect x="338" y="82" width="254" height="188" rx="6" fill="#252323" stroke="#62524d" stroke-width="2"/>
  <rect x="622" y="82" width="262" height="188" rx="6" fill="#1d2529" stroke="#4d6370" stroke-width="2"/>
  <path d="M82 282H878" stroke="#4a5551" stroke-width="4" stroke-linecap="round"/>
  <path d="M119 131H264M119 164H264M119 197H226" stroke="#7b8a82" stroke-width="6" stroke-linecap="round"/>
  <path d="M384 136H544M384 171H522M384 206H560" stroke="#8b7168" stroke-width="6" stroke-linecap="round"/>
  <path d="M675 130H832M675 167H812M675 204H850" stroke="#718895" stroke-width="6" stroke-linecap="round"/>
  <circle cx="316" cy="282" r="18" fill="#5a201f"/>
  <circle cx="594" cy="282" r="14" fill="#85733c"/>
  <path d="M454 65L482 65L482 37L512 37L512 65L540 65L540 94L512 94L512 122L482 122L482 94L454 94V65Z" fill="#9b2f2f"/>
  <path d="M92 298C162 247 230 248 298 298" stroke="#29322f" stroke-width="8"/>
  <path d="M645 293C714 251 790 248 859 293" stroke="#26333a" stroke-width="8"/>
  <path d="M46 55L912 310" stroke="#ffffff" stroke-opacity="0.04" stroke-width="18"/>
  <path d="M66 44L910 292" stroke="#ffffff" stroke-opacity="0.03" stroke-width="5"/>
  <rect x="416" y="255" width="130" height="32" rx="4" fill="#171a19" stroke="#6d7771"/>
  <path d="M429 271H531" stroke="#98a39d" stroke-width="3" stroke-linecap="round"/>
</svg>
